<svg width="186" height="41" viewBox="0 0 186 41" fill="none" xmlns="http://www.w3.org/2000/svg">
<path d="M34.1422 6.85781C30.3647 3.08031 25.3422 1 20 1C14.6578 1 9.63531 3.08031 5.85781 6.85781C2.08031 10.6353 0 15.6578 0 21C0 26.3422 2.08039 31.3646 5.85781 35.1422C9.63523 38.9198 14.6578 41 20 41C25.3422 41 30.3647 38.9197 34.1422 35.1422C37.9197 31.3647 40 26.3422 40 21C40 15.6578 37.9196 10.6354 34.1422 6.85781Z" fill="#33CC95"/>
<g clip-path="url(#clip0_97612_175)">
<path d="M20.5714 9V34.1429" stroke="white" stroke-width="2" stroke-linecap="round" stroke-linejoin="round"/>
<path d="M26.2857 13.5714H17.7143C16.6534 13.5714 15.636 13.9929 14.8859 14.743C14.1357 15.4931 13.7143 16.5106 13.7143 17.5714C13.7143 18.6323 14.1357 19.6497 14.8859 20.3999C15.636 21.15 16.6534 21.5714 17.7143 21.5714H23.4286C24.4894 21.5714 25.5069 21.9929 26.257 22.743C27.0072 23.4931 27.4286 24.5106 27.4286 25.5714C27.4286 26.6323 27.0072 27.6497 26.257 28.3999C25.5069 29.15 24.4894 29.5714 23.4286 29.5714H13.7143" stroke="white" stroke-width="2" stroke-linecap="round" stroke-linejoin="round"/>
</g>
<path d="M47.94 12.112H53.14V30H47.94V12.112ZM54.232 25.814H59.796V30H54.232V25.814ZM61.7984 10.682H66.6084V14.426H61.7984V10.682ZM61.7984 16.74H66.6084V30H61.7984V16.74ZM77.0819 23.734C77.0819 22.8153 77.0733 22.2087 77.0559 21.914C77.0213 21.4287 76.9779 21.108 76.9259 20.952C76.8566 20.7787 76.7353 20.6747 76.5619 20.64C76.3886 20.588 76.1113 20.562 75.7299 20.562H75.4699V17.312C76.1459 16.8093 77.0299 16.558 78.1219 16.558C79.6819 16.558 80.7306 17.0347 81.2679 17.988C81.5106 18.404 81.6753 18.9153 81.7619 19.522C81.8486 20.1113 81.8919 20.8393 81.8919 21.706V30H77.0819V23.734ZM69.5679 16.74H74.3779V30H69.5679V16.74ZM94.6811 20.354C94.3518 20.3367 93.9011 20.2933 93.3291 20.224C92.2544 20.12 91.3878 20.068 90.7291 20.068H89.8711V16.532C91.1018 16.532 92.2718 16.6187 93.3811 16.792L94.6811 17.026V20.354ZM90.9111 25.97C90.9111 25.71 90.8678 25.5453 90.7811 25.476C90.6944 25.4067 90.5124 25.3547 90.2351 25.32L87.4271 24.93C86.7338 24.826 86.1704 24.6613 85.7371 24.436C85.3211 24.2107 85.0091 23.9073 84.8011 23.526C84.5931 23.1967 84.4544 22.798 84.3851 22.33C84.3158 21.862 84.2811 21.2813 84.2811 20.588C84.2811 19.1667 84.7058 18.1267 85.5551 17.468C86.2658 16.948 87.3404 16.6447 88.7791 16.558V20.64C88.7791 20.9 88.8138 21.0733 88.8831 21.16C88.9524 21.2293 89.1691 21.29 89.5331 21.342L92.6531 21.758C93.1038 21.81 93.4938 21.9053 93.8231 22.044C94.1524 22.1653 94.4298 22.356 94.6551 22.616C95.1578 23.1707 95.4091 24.2367 95.4091 25.814C95.4091 27.478 94.9844 28.6393 94.1351 29.298C93.3898 29.8527 92.3151 30.1473 90.9111 30.182V25.97ZM89.8191 30.208C88.4324 30.1907 87.2191 30.104 86.1791 29.948L84.6971 29.714V26.386C85.3904 26.4553 86.3264 26.5247 87.5051 26.594C88.1638 26.6287 88.6318 26.646 88.9091 26.646H89.8191V30.208ZM104.764 12.892V12.112H109.548L117.036 28.024L116.178 30H112.798L104.764 12.892ZM119.454 22.486H119.35L117.608 26.698L115.372 21.914L119.454 12.112H124.394V30H119.454V22.486ZM104.764 15.466L109.548 25.658V30H104.764V15.466ZM134.97 23.396C134.97 22.512 134.961 21.9227 134.944 21.628C134.927 21.212 134.875 20.9 134.788 20.692C134.701 20.4667 134.563 20.328 134.372 20.276C134.164 20.224 133.878 20.198 133.514 20.198H133.15V16.532H133.514C135.022 16.532 136.201 16.6533 137.05 16.896C137.899 17.1213 138.532 17.5027 138.948 18.04C139.329 18.5253 139.572 19.1753 139.676 19.99C139.797 20.7873 139.858 21.9227 139.858 23.396C139.858 24.7653 139.815 25.8313 139.728 26.594C139.659 27.3393 139.477 27.9547 139.182 28.44C138.853 28.9773 138.359 29.3847 137.7 29.662C137.041 29.922 136.131 30.0867 134.97 30.156V23.396ZM133.514 30.208C132.006 30.208 130.827 30.0953 129.978 29.87C129.129 29.6447 128.496 29.2633 128.08 28.726C127.699 28.2407 127.447 27.5993 127.326 26.802C127.222 26.0047 127.17 24.8693 127.17 23.396C127.17 22.044 127.213 20.9867 127.3 20.224C127.387 19.4613 127.577 18.8287 127.872 18.326C128.184 17.7713 128.669 17.364 129.328 17.104C129.987 16.8267 130.897 16.6533 132.058 16.584V23.396C132.058 24.28 132.067 24.8607 132.084 25.138C132.101 25.554 132.153 25.866 132.24 26.074C132.327 26.282 132.474 26.412 132.682 26.464C132.855 26.516 133.133 26.542 133.514 26.542H133.878V30.208H133.514ZM149.953 23.734C149.953 22.8153 149.944 22.2087 149.927 21.914C149.892 21.4287 149.849 21.108 149.797 20.952C149.728 20.7787 149.606 20.6747 149.433 20.64C149.26 20.588 148.982 20.562 148.601 20.562H148.341V17.312C149.017 16.8093 149.901 16.558 150.993 16.558C152.553 16.558 153.602 17.0347 154.139 17.988C154.382 18.404 154.546 18.9153 154.633 19.522C154.72 20.1113 154.763 20.8393 154.763 21.706V30H149.953V23.734ZM142.439 16.74H147.249V30H142.439V16.74ZM163.21 22.07H165.03C165.03 21.0993 164.935 20.4753 164.744 20.198C164.64 20.042 164.502 19.9467 164.328 19.912C164.155 19.86 163.904 19.834 163.574 19.834H163.21V16.532H163.574C165.065 16.532 166.209 16.6533 167.006 16.896C167.821 17.1387 168.419 17.5373 168.8 18.092C169.147 18.5773 169.355 19.2013 169.424 19.964C169.511 20.7267 169.554 21.8707 169.554 23.396V24.436H163.21V22.07ZM164.094 30.208C162.5 30.208 161.243 30.078 160.324 29.818C159.423 29.5407 158.747 29.1073 158.296 28.518C157.898 27.998 157.638 27.3567 157.516 26.594C157.395 25.814 157.334 24.748 157.334 23.396C157.334 22.148 157.378 21.16 157.464 20.432C157.551 19.6867 157.733 19.054 158.01 18.534C158.322 17.962 158.799 17.52 159.44 17.208C160.099 16.8787 160.992 16.6707 162.118 16.584V24.436C162.118 25.0253 162.144 25.45 162.196 25.71C162.248 25.9527 162.37 26.1347 162.56 26.256C162.768 26.3947 163.089 26.4727 163.522 26.49C164.077 26.5247 164.666 26.542 165.29 26.542C166.4 26.542 167.206 26.516 167.708 26.464L169.034 26.36V29.714C168.341 29.922 167.388 30.0607 166.174 30.13C165.585 30.182 164.892 30.208 164.094 30.208ZM175.967 29.922C174.407 29.922 173.358 29.4453 172.821 28.492C172.578 28.076 172.414 27.5733 172.327 26.984C172.24 26.3773 172.197 25.6407 172.197 24.774V16.74H177.007V22.746C177.007 23.6647 177.016 24.2713 177.033 24.566C177.068 25.0167 177.12 25.3287 177.189 25.502C177.258 25.6927 177.371 25.814 177.527 25.866C177.683 25.9007 177.96 25.918 178.359 25.918H178.619V29.142C177.926 29.662 177.042 29.922 175.967 29.922ZM177.761 35.356C176.86 35.356 175.802 35.304 174.589 35.2L173.081 35.044V31.69H176.565C177.189 31.69 177.796 31.6727 178.385 31.638C178.801 31.6033 179.104 31.5167 179.295 31.378C179.503 31.2567 179.624 31.04 179.659 30.728C179.694 30.312 179.711 29.87 179.711 29.402V16.74H184.521V28.544C184.521 29.9307 184.46 31.0053 184.339 31.768C184.235 32.5307 183.984 33.1633 183.585 33.666C183.134 34.238 182.45 34.6627 181.531 34.94C180.612 35.2173 179.356 35.356 177.761 35.356Z" fill="white"/>
<defs>
<clipPath id="clip0_97612_175">
<rect width="27.4286" height="27.4286" fill="white" transform="translate(6.85715 7.85714)"/>
</clipPath>
</defs>
</svg>
